<!DOCTYPE svg PUBLIC "-//W3C//DTD SVG 1.1//EN" "http://www.w3.org/Graphics/SVG/1.1/DTD/svg11.dtd">

<!-- Uploaded to: SVG Repo, www.svgrepo.com, Transformed by: SVG Repo Mixer Tools -->
<svg height="171px" width="171px" version="1.1" id="Layer_1" xmlns="http://www.w3.org/2000/svg" xmlns:xlink="http://www.w3.org/1999/xlink" viewBox="-102.4 -102.4 716.80 716.80" xml:space="preserve" fill="#000000" stroke="#000000" stroke-width="0.005120019999999999">

<g id="SVGRepo_bgCarrier" stroke-width="0" transform="translate(0,0), scale(1)">

<rect x="-102.4" y="-102.4" width="716.80" height="716.80" rx="0" fill="#7ed0ec" strokewidth="0"/>

</g>

<g id="SVGRepo_tracerCarrier" stroke-linecap="round" stroke-linejoin="round"/>

<g id="SVGRepo_iconCarrier"> <g> <path style="fill:#CEE8FA;" d="M304.232,179.139c3.393,5.874,5.757,12.417,6.814,19.395c0-0.001,0-0.004,0-0.006l75.711,8.409 c12.042,1.337,22.841,6.245,31.46,13.552l13.544-13.545l-77.667-77.667L304.232,179.139 C304.232,179.14,304.232,179.14,304.232,179.139z"/> <path style="fill:#CEE8FA;" d="M228.199,159.716c5.874-3.393,12.417-5.757,19.395-6.814c-0.001,0-0.004,0-0.006,0l8.409-75.711 c1.337-12.042,6.245-22.841,13.552-31.46l-13.544-13.545l-77.667,77.667L228.199,159.716L228.199,159.716z"/> <path style="fill:#CEE8FA;" d="M264.404,262.99c0.001,0,0.003,0,0.004,0l-8.411,75.702c-1.337,12.04-6.244,22.838-13.549,31.455 l13.556,13.556l77.668-77.668l-49.861-49.863C277.932,259.569,271.386,261.934,264.404,262.99z"/> <path style="fill:#CEE8FA;" d="M200.959,216.343c0,0.004,0.001,0.01,0.001,0.015l-75.717-8.415 c-12.037-1.338-22.833-6.242-31.449-13.546l-13.549,13.547l77.665,77.665l49.863-49.863l0,0 C204.378,229.871,202.015,223.323,200.959,216.343z"/> </g> <path style="fill:#2D527C;" d="M450.482,20.463L319.9,10.584c-18.745-1.42-36.326,4.247-50.113,14.788l-3.484-3.484 c-2.731-2.731-6.436-4.266-10.298-4.266c-3.862,0-7.566,1.535-10.298,4.266l-67.369,67.367L93.347,4.266 C89.324,0.244,83.33-1.07,77.986,0.908c-5.335,1.978-9.031,6.883-9.461,12.557l-9.883,130.569 c-1.419,18.745,4.25,36.331,14.794,50.122l-3.49,3.488c-2.731,2.731-4.266,6.436-4.266,10.298s1.535,7.567,4.266,10.298 l67.367,67.367l-19.491,19.491c-5.687,5.687-5.687,14.909,0,20.598c5.689,5.687,14.908,5.687,20.598,0l29.783-29.783 c0.001-0.001,0.004-0.004,0.006-0.006l38.23-38.232c11.173,11.104,25.873,18.259,41.675,20.06l-6.593,59.348 c0,0.003,0,0.006-0.001,0.009c-0.111,0.992-0.262,1.972-0.438,2.948c-0.035,0.197-0.071,0.392-0.109,0.587 c-1.435,7.413-4.722,14.305-9.636,20.103c-0.236,0.278-0.45,0.569-0.661,0.861c-8.832,9.954-22.04,15.748-36.387,14.66 l-130.569-9.874c-7.991-0.584-15.014,5.403-15.621,13.425c-0.606,8.02,5.405,15.014,13.425,15.621l130.569,9.874 c1.908,0.144,3.801,0.214,5.683,0.214c16.255,0,31.409-5.303,43.661-14.415v106.342c0,8.044,6.522,14.564,14.564,14.564 c8.042,0,14.564-6.52,14.564-14.564V389.736l63.103-63.103l84.987,84.991c2.78,2.782,6.504,4.267,10.301,4.267 c1.697,0,3.411-0.297,5.06-0.909c5.336-1.978,9.031-6.883,9.461-12.559l9.871-130.584c1.436-18.993-4.411-36.792-15.228-50.661 l3.934-3.934c2.731-2.731,4.266-6.436,4.266-10.298c0-3.862-1.535-7.566-4.266-10.298l-66.869-66.871l26.552-26.552 c5.687-5.687,5.687-14.909,0-20.596c-5.687-5.687-14.906-5.687-20.598,0l-33.707,33.707c-1.331,0.685-2.563,1.567-3.641,2.645 l-38.745,38.745c-11.111-10.824-25.604-17.8-41.172-19.573l6.059-54.557l0.533-4.794c0.111-0.996,0.264-1.982,0.44-2.961 c0.035-0.194,0.07-0.386,0.108-0.578c1.435-7.417,4.723-14.312,9.638-20.11c0.249-0.293,0.475-0.599,0.696-0.906 c8.829-9.927,22.018-15.701,36.35-14.615l130.582,9.879c8.017,0.597,15.014-5.402,15.621-13.424 C464.513,28.064,458.504,21.07,450.482,20.463z M157.912,265.013l-44.455-44.454c0.119,0.031,0.242,0.057,0.363,0.086 c0.725,0.182,1.452,0.358,2.183,0.518c0.419,0.092,0.845,0.17,1.267,0.255c0.692,0.138,1.386,0.269,2.084,0.387 c0.357,0.061,0.714,0.121,1.073,0.176c1.063,0.166,2.132,0.316,3.207,0.435l65.571,7.286c0.326,0.996,0.673,1.987,1.044,2.968 L157.912,265.013z M186.211,200.065l-59.358-6.596c-0.995-0.111-1.979-0.264-2.958-0.44c-0.195-0.035-0.389-0.071-0.583-0.108 c-7.412-1.435-14.305-4.72-20.101-9.633c-0.262-0.221-0.534-0.421-0.808-0.62c-9.987-8.836-15.803-22.067-14.715-36.432l7.49-98.945 l72.851,72.849c0.004,0.004,0.007,0.009,0.012,0.013l38.233,38.232C195.165,169.557,188.01,184.261,186.211,200.065z M198.934,109.854l44.445-44.445c-0.218,0.851-0.419,1.705-0.607,2.565c-0.086,0.396-0.16,0.797-0.24,1.196 c-0.144,0.718-0.28,1.437-0.402,2.161c-0.058,0.341-0.115,0.683-0.169,1.027c-0.166,1.066-0.318,2.137-0.437,3.213 c0,0.004-0.001,0.009-0.001,0.013l-1.692,15.243l-5.59,50.324c-0.996,0.325-1.984,0.673-2.965,1.043L198.934,109.854z M268.62,350.49c0.119-0.469,0.217-0.947,0.328-1.419c0.105-0.446,0.213-0.891,0.309-1.34c0.095-0.443,0.182-0.888,0.268-1.334 c0.127-0.645,0.245-1.293,0.355-1.944c0.06-0.351,0.119-0.702,0.173-1.054c0.159-1.028,0.303-2.059,0.418-3.098l7.285-65.557 c1.002-0.326,1.994-0.676,2.981-1.049l32.338,32.339L268.62,350.49z M424.306,269.643l-7.482,98.954l-72.852-72.856 c-0.001-0.001-0.001-0.001-0.003-0.003l-38.232-38.233c11.107-11.176,18.262-25.883,20.059-41.688l59.345,6.599 C408.908,225.055,426.109,245.801,424.306,269.643z M398.54,194.319c-3.325-0.852-6.723-1.475-10.176-1.857l-65.566-7.282 c-0.245-0.749-0.514-1.488-0.784-2.228l32.578-32.578L398.54,194.319z M291.621,187.424c0.5,0.864,1.092,1.654,1.745,2.386 c1.475,3.206,2.527,6.564,3.13,10.036c0.015,0.619,0.058,1.239,0.151,1.858c0.312,2.055,0.469,4.155,0.469,6.241 c0,14.63-7.891,28.277-20.593,35.618c0,0,0,0-0.001,0.001c-4.455,2.573-9.264,4.264-14.292,5.026c0,0-0.001,0-0.003,0 c-2.051,0.31-4.145,0.468-6.223,0.468c-14.632,0-28.28-7.891-35.619-20.595c0-0.001-0.001-0.003-0.001-0.003 c-2.569-4.449-4.258-9.254-5.023-14.28v-0.001c-0.312-2.055-0.469-4.152-0.469-6.233c0-14.631,7.892-28.279,20.596-35.619 c0.001-0.001,0.004-0.003,0.006-0.004c4.435-2.56,9.222-4.248,14.232-5.014c0.006-0.001,0.013-0.003,0.019-0.004 c0.01-0.001,0.02-0.001,0.031-0.003c2.048-0.31,4.145-0.469,6.23-0.469C270.634,166.832,284.282,174.723,291.621,187.424z"/> </g>

</svg>